# xmcd
#
# Track frame offsets: 
#        150
#        17285
#        53495
#        73557
#        100882
#
# Disc length: 2321 seconds
#
# Revision: 2
# Processed by: cddbd v1.5.2PL0 Copyright (c) Steve Scherf et al.
# Submitted via: ExactAudioCopyFreeDBPlugin 1.0
#
DISCID=30090f05
DTITLE=R. Kelly - Down Low (Nobody Has to Know) [CDS)
DYEAR=1996
DGENRE=R&B
TTITLE0=Down Low (Nobody Has To Know) (Radio Mix)
TTITLE1=Down Low (Nobody Has To Know) (12" Mix)
TTITLE2=Down Low (Nobody Has To Know) (Live To Regret It Mix - Radio V
TTITLE2=ersion No. 1 (Blame It On The Mo'))
TTITLE3=Down Low (Nobody Has To Know) (Instrumental)
TTITLE4=Down Low (Nobody Has To Know) (It's A Long Story Mix (Blame It
TTITLE4=On The Mo'))
EXTD=
EXTT0=
EXTT1=
EXTT2=
EXTT3=
EXTT4=
PLAYORDER=
